<svg width="88" height="89" viewBox="0 0 88 89" fill="none" xmlns="http://www.w3.org/2000/svg">
<g clip-path="url(#clip0)">
<path d="M45.6594 43.7052C46.0338 43.3308 46.0338 42.7202 45.6594 42.3458C45.4775 42.1638 45.236 42.0641 44.9788 42.0641C44.7217 42.0641 44.4802 42.1638 44.2983 42.3458C43.9239 42.7202 43.9239 43.3308 44.2983 43.7069C44.6709 44.0796 45.2833 44.0796 45.6594 43.7052Z" fill="white"/>
<path d="M62.2958 17.749C60.2576 17.749 58.2193 18.5258 56.6675 20.0777C53.5656 23.1796 53.5656 28.2305 56.6675 31.3359C59.7712 34.4379 64.8221 34.4379 67.9258 31.3359C69.4304 29.8313 70.2597 27.8316 70.2597 25.7077C70.2597 23.582 69.4304 21.584 67.9258 20.0794C66.3739 18.5241 64.334 17.749 62.2958 17.749ZM66.5646 29.973C65.389 31.1487 63.8424 31.7383 62.2975 31.7383C60.7527 31.7383 59.2061 31.1505 58.0304 29.9748C55.6773 27.6199 55.6773 23.7902 58.0304 21.4388C59.1711 20.2981 60.6862 19.67 62.2975 19.67C63.9088 19.67 65.4257 20.2981 66.5664 21.4388C67.7071 22.5795 68.3352 24.0946 68.3352 25.7077C68.3334 27.3172 67.7053 28.8323 66.5646 29.973Z" fill="white"/>
<path d="M88 0.997234C88.0088 0.731304 87.9073 0.470623 87.7183 0.281673C87.5294 0.0927226 87.2687 -0.0105001 87.0045 -2.91492e-06C86.6126 0.0139934 77.3103 0.388395 66.227 4.30561C57.3674 7.43553 49.9896 11.9074 44.2966 17.6003C43.0264 18.8705 41.7772 20.2299 40.5823 21.6453L40.1537 22.1526L39.5816 21.8167C34.1492 18.6186 29.8331 19.6473 27.1703 21.0732C20.7653 24.5005 16.7991 33.8518 16.7991 40.5508C16.7991 40.9409 17.0335 41.2908 17.3939 41.4396C17.7508 41.5883 18.1707 41.5025 18.4436 41.2314C21.3531 38.3219 24.819 37.8093 26.8992 37.8093C27.5377 37.8093 28.0451 37.8582 28.367 37.9002L28.6329 37.9352L29.8086 39.1109L29.6039 39.599C28.4108 42.4368 27.452 45.2588 26.7504 47.9863C26.5387 48.8156 26.6017 49.6991 26.9324 50.5406L27.2053 51.2335L26.53 51.5449C24.9222 52.2849 23.3668 53.3819 22.0319 54.7168C17.7316 59.0172 16.8411 69.7138 16.8061 70.167C16.7833 70.4486 16.8848 70.7233 17.0842 70.9228C17.2802 71.1187 17.5601 71.2237 17.8383 71.2009C21.6785 70.8983 29.8454 69.4182 33.2902 65.9751C34.6251 64.6402 35.7221 63.0866 36.4621 61.4788L36.7735 60.8034L37.4646 61.0746C38.3061 61.4053 39.1914 61.4683 40.0224 61.2548C42.75 60.555 45.572 59.5945 48.4097 58.4031L48.8978 58.1984L50.0735 59.3741L50.1085 59.64C50.2887 61.0064 50.5792 65.7599 46.7774 69.5616C46.501 69.8381 46.4187 70.2492 46.5692 70.6096C46.7179 70.97 47.0678 71.2044 47.458 71.2044C54.1552 71.2044 63.5065 67.24 66.9356 60.8332C68.3615 58.1686 69.3902 53.8543 66.192 48.422L65.8561 47.8499L66.3635 47.4212C67.7771 46.2263 69.1382 44.9754 70.4084 43.707C76.1014 38.014 80.575 30.6362 83.7031 21.7765C87.6116 10.6897 87.986 1.38738 88 0.997234ZM29.3153 36.1087C29.1298 36.0667 24.7472 35.1132 20.2912 37.4821L18.811 38.2676L19.1505 36.6266C20.2002 31.5442 23.3686 25.2878 28.0766 22.7685C31.182 21.1064 34.5691 21.2551 38.1434 23.2111L38.9465 23.6502L38.3936 24.3781C35.5961 28.0573 33.1503 32.0428 31.1243 36.2259L30.7446 37.0097L30.0028 36.5531C29.9154 36.4989 29.8611 36.4429 29.8261 36.4061C29.7684 36.3501 29.5952 36.1717 29.3153 36.1087ZM35.052 59.8482C34.4327 61.54 33.3514 63.1881 31.9256 64.6139C29.1141 67.4272 22.5551 68.6379 19.866 69.028L18.8215 69.1802L18.9737 68.1358C19.3639 65.4467 20.5763 58.8894 23.3878 56.0762C24.8137 54.6503 26.46 53.5691 28.1536 52.9498L28.6259 52.7766L35.2252 59.3758L35.052 59.8482ZM46.3138 57.1766C44.0219 58.0812 41.7422 58.8247 39.5396 59.3916C39.3716 59.4353 39.1984 59.4563 39.0235 59.4563C38.3971 59.4563 37.7533 59.1851 37.2599 58.69C34.996 56.4261 34.1108 55.5408 33.8326 55.2626L29.3135 50.7436C28.6819 50.1103 28.4125 49.2372 28.6102 48.4622C29.1753 46.2578 29.9206 43.9781 30.8251 41.6862L31.266 40.57L47.4317 56.7358L46.3138 57.1766ZM65.2333 59.9234C62.7122 64.6314 56.4576 67.7998 51.3752 68.8496L49.7341 69.189L50.5197 67.7089C52.1415 64.6559 52.4354 60.8472 51.8861 58.662C51.8196 58.3978 51.6656 58.2474 51.5991 58.1826C51.5606 58.1441 51.5012 58.0864 51.4469 57.9972L50.9938 57.2554L51.7758 56.8775C55.959 54.8515 59.9444 52.4057 63.6237 49.6081L64.3515 49.0553L64.7906 49.8583C66.7466 53.4309 66.8953 56.818 65.2333 59.9234ZM81.4987 22.1736C78.4878 30.302 74.2959 37.0885 69.0403 42.3441C67.4429 43.9414 65.7232 45.4827 63.9316 46.9261C59.6278 50.3919 54.8813 53.3347 49.8216 55.6738L49.323 55.9047L32.097 38.6788L32.328 38.1802C34.6671 33.1205 37.6098 28.3723 41.0757 24.0701C42.5225 22.2751 44.0639 20.5553 45.6595 18.9615C50.9151 13.7059 57.7015 9.51398 65.8299 6.50303L66.304 6.32808L81.6772 21.7013L81.4987 22.1736ZM82.384 19.6893L68.3125 5.61601L69.5581 5.22937C76.3026 3.13517 82.1706 2.35313 85.0678 2.07495L86.0178 1.98397L85.9268 2.93397C85.6486 5.83121 84.8666 11.6992 82.7724 18.4436L82.384 19.6893Z" fill="white"/>
<path d="M50.6072 38.7558L53.081 36.282C53.4554 35.9076 53.4554 35.297 53.081 34.9208C52.8938 34.7336 52.6471 34.6392 52.4004 34.6392C52.1538 34.6392 51.9071 34.7336 51.7199 34.9208L49.246 37.3947C48.8716 37.7691 48.8716 38.3797 49.246 38.7558C49.6204 39.132 50.231 39.1302 50.6072 38.7558Z" fill="white"/>
</g>
<defs>
<clipPath id="clip0">
<rect width="88" height="88.0018" fill="white"/>
</clipPath>
</defs>
</svg>
