<svg width="67" height="54" viewBox="0 0 67 54" fill="none" xmlns="http://www.w3.org/2000/svg">
<path d="M66.1247 16.3008L61.8616 15.441C61.5475 14.3745 61.1198 13.3447 60.5859 12.3694L62.9948 8.74378C63.0886 8.60205 63.1306 8.4323 63.1136 8.26319C63.0967 8.09409 63.022 7.93601 62.902 7.81566L58.8975 3.81122C58.7772 3.69123 58.6191 3.61647 58.45 3.59955C58.2809 3.58264 58.1111 3.62463 57.9694 3.71841L54.3438 6.12731C53.3685 5.59337 52.3387 5.16567 51.2722 4.85156L50.4124 0.590625C50.3784 0.423831 50.2878 0.27391 50.156 0.166268C50.0241 0.0586269 49.8591 -0.00011407 49.6889 1.66307e-07H44.0243C43.8541 -0.00011407 43.6891 0.0586269 43.5572 0.166268C43.4254 0.27391 43.3348 0.423831 43.3008 0.590625L42.441 4.84945C41.3745 5.16356 40.3447 5.59126 39.3694 6.1252L35.7438 3.7163C35.6021 3.62244 35.4323 3.58041 35.2632 3.59732C35.0941 3.61424 34.936 3.68905 34.8157 3.80911L30.8112 7.81355C30.6912 7.9339 30.6165 8.09198 30.5996 8.26108C30.5826 8.43019 30.6246 8.59994 30.7184 8.74167L33.1273 12.3673C32.5934 13.3426 32.1657 14.3723 31.8516 15.4389L27.5906 16.2987C27.4238 16.3327 27.2739 16.4233 27.1663 16.5551C27.0586 16.687 26.9999 16.852 27 17.0222V22.6868C26.9999 22.857 27.0586 23.022 27.1663 23.1539C27.2739 23.2857 27.4238 23.3763 27.5906 23.4103L31.8495 24.27C32.1636 25.3366 32.5913 26.3664 33.1252 27.3417L30.7163 30.9673C30.6225 31.109 30.5805 31.2788 30.5974 31.4479C30.6144 31.617 30.6891 31.7751 30.8091 31.8954L34.8135 35.8999C34.9339 36.0199 35.0919 36.0947 35.2611 36.1117C35.4302 36.1286 35.6 36.0865 35.7417 35.9927L39.3673 33.5838C40.3426 34.1177 41.3723 34.5454 42.4389 34.8595L43.2987 39.1226C43.3327 39.2894 43.4233 39.4393 43.5551 39.5469C43.687 39.6546 43.852 39.7133 44.0222 39.7132H49.6867C49.857 39.7133 50.022 39.6546 50.1538 39.5469C50.2857 39.4393 50.3763 39.2894 50.4103 39.1226L51.27 34.8616C52.3366 34.5475 53.3664 34.1198 54.3417 33.5859L57.9673 35.9948C58.1091 36.0883 58.2788 36.1302 58.4479 36.1133C58.6169 36.0964 58.775 36.0218 58.8954 35.902L62.8999 31.8975C63.0199 31.7772 63.0946 31.6191 63.1115 31.45C63.1284 31.2809 63.0865 31.1112 62.9927 30.9694L60.5838 27.3438C61.1177 26.3685 61.5454 25.3388 61.8595 24.2722L66.1226 23.4124C66.2894 23.3784 66.4393 23.2878 66.5469 23.156C66.6546 23.0241 66.7133 22.8591 66.7132 22.6889V17.0243C66.7134 16.8544 66.655 16.6896 66.5477 16.5578C66.4405 16.426 66.2911 16.3352 66.1247 16.3008ZM65.2387 22.0805L61.1238 22.9103C60.9883 22.9376 60.8632 23.0024 60.7628 23.0974C60.6624 23.1924 60.5907 23.3136 60.5559 23.4474C60.2283 24.6927 59.7315 25.8871 59.0794 26.9975C59.0095 27.1167 58.9746 27.2532 58.9785 27.3913C58.9825 27.5295 59.0252 27.6637 59.1017 27.7788L61.4267 31.2803L58.2774 34.4296L54.7758 32.1047C54.6608 32.0281 54.5265 31.9854 54.3884 31.9815C54.2502 31.9775 54.1138 32.0125 53.9945 32.0823C52.8842 32.7344 51.6897 33.2312 50.4444 33.5589C50.3107 33.5937 50.1894 33.6654 50.0944 33.7658C49.9995 33.8662 49.9347 33.9913 49.9074 34.1267L49.0776 38.2417H44.6285L43.7986 34.1267C43.7714 33.9913 43.7065 33.8662 43.6116 33.7658C43.5166 33.6654 43.3953 33.5937 43.2616 33.5589C42.0163 33.2312 40.8218 32.7344 39.7115 32.0823C39.5922 32.0126 39.4558 31.9778 39.3177 31.9817C39.1795 31.9857 39.0453 32.0283 38.9302 32.1047L35.4286 34.4296L32.2793 31.2803L34.6043 27.7788C34.6809 27.6637 34.7236 27.5295 34.7275 27.3913C34.7315 27.2532 34.6965 27.1167 34.6267 26.9975C33.9753 25.887 33.4792 24.6926 33.1522 23.4474C33.1174 23.3136 33.0457 23.1924 32.9453 23.0974C32.8449 23.0024 32.7198 22.9376 32.5844 22.9103L28.4694 22.0805V17.6285L32.5844 16.7986C32.7198 16.7714 32.8449 16.7066 32.9453 16.6116C33.0457 16.5166 33.1174 16.3953 33.1522 16.2616C33.4792 15.0164 33.9753 13.822 34.6267 12.7115C34.6965 12.5923 34.7315 12.4558 34.7275 12.3177C34.7236 12.1795 34.6809 12.0453 34.6043 11.9302L32.2793 8.42864L35.4286 5.27934L38.9302 7.6043C39.0452 7.68095 39.1795 7.7237 39.3176 7.72766C39.4558 7.73161 39.5923 7.69661 39.7115 7.62666C40.822 6.9753 42.0164 6.4792 43.2616 6.1522C43.3953 6.11742 43.5166 6.04574 43.6116 5.94533C43.7065 5.84493 43.7714 5.71984 43.7986 5.58436L44.6285 1.46939H49.0826L49.9125 5.58436C49.9397 5.71984 50.0045 5.84493 50.0995 5.94533C50.1945 6.04574 50.3157 6.11742 50.4495 6.1522C51.6947 6.4792 52.8891 6.9753 53.9996 7.62666C54.1188 7.69661 54.2553 7.73161 54.3934 7.72766C54.5316 7.7237 54.6659 7.68095 54.7809 7.6043L58.2824 5.27934L61.4317 8.42864L59.1068 11.9302C59.0302 12.0453 58.9875 12.1795 58.9836 12.3177C58.9796 12.4558 59.0146 12.5923 59.0844 12.7115C59.7365 13.8218 60.2333 15.0163 60.561 16.2616C60.5958 16.3953 60.6675 16.5166 60.7679 16.6116C60.8683 16.7066 60.9934 16.7714 61.1288 16.7986L65.2438 17.6285L65.2387 22.0805Z" fill="#03045C"/>
<path d="M46.8556 9.67859C44.8428 9.67859 42.8752 10.2755 41.2016 11.3937C39.528 12.512 38.2237 14.1014 37.4534 15.9609C36.6831 17.8205 36.4816 19.8668 36.8743 21.8409C37.2669 23.815 38.2362 25.6284 39.6595 27.0516C41.0827 28.4749 42.8961 29.4441 44.8702 29.8368C46.8443 30.2295 48.8906 30.028 50.7501 29.2577C52.6097 28.4874 54.1991 27.183 55.3174 25.5095C56.4356 23.8359 57.0325 21.8683 57.0325 19.8555C57.0294 17.1574 55.9562 14.5706 54.0483 12.6628C52.1404 10.7549 49.5537 9.68172 46.8556 9.67859ZM46.8556 28.5558C45.1348 28.5558 43.4527 28.0455 42.022 27.0895C40.5912 26.1335 39.4761 24.7747 38.8176 23.1849C38.159 21.5952 37.9867 19.8458 38.3225 18.1581C38.6582 16.4704 39.4868 14.9202 40.7035 13.7034C41.9203 12.4867 43.4706 11.658 45.1583 11.3223C46.846 10.9866 48.5953 11.1589 50.1851 11.8174C51.7749 12.4759 53.1337 13.5911 54.0897 15.0218C55.0457 16.4526 55.5559 18.1347 55.5559 19.8555C55.5533 22.1621 54.6358 24.3735 53.0047 26.0046C51.3737 27.6356 49.1623 28.5531 46.8556 28.5558Z" fill="#03045C"/>
<path d="M46.8556 12.7743C45.4551 12.7743 44.086 13.1896 42.9215 13.9677C41.757 14.7458 40.8494 15.8517 40.3134 17.1456C39.7775 18.4395 39.6373 19.8633 39.9105 21.2369C40.1837 22.6105 40.8581 23.8723 41.8484 24.8626C42.8388 25.8529 44.1005 26.5273 45.4741 26.8006C46.8477 27.0738 48.2715 26.9336 49.5654 26.3976C50.8594 25.8616 51.9653 24.954 52.7434 23.7895C53.5215 22.6251 53.9368 21.256 53.9368 19.8555C53.9351 17.9779 53.1885 16.1778 51.8609 14.8502C50.5333 13.5226 48.7331 12.776 46.8556 12.7743ZM46.8556 25.4601C45.7471 25.4601 44.6635 25.1314 43.7418 24.5155C42.8202 23.8997 42.1018 23.0244 41.6776 22.0002C41.2534 20.9761 41.1424 19.8492 41.3587 18.7621C41.5749 17.6749 42.1087 16.6762 42.8925 15.8924C43.6764 15.1086 44.675 14.5748 45.7622 14.3585C46.8494 14.1423 47.9763 14.2533 49.0004 14.6775C50.0245 15.1017 50.8998 15.82 51.5157 16.7417C52.1315 17.6634 52.4602 18.747 52.4602 19.8555C52.4585 21.3414 51.8675 22.766 50.8168 23.8167C49.7661 24.8674 48.3415 25.4584 46.8556 25.4601Z" fill="#03045C"/>
<path d="M26.3173 37.9648L23.4498 37.3865C23.2385 36.669 22.9508 35.9763 22.5916 35.3203L24.212 32.8815C24.2751 32.7862 24.3033 32.672 24.292 32.5583C24.2806 32.4445 24.2303 32.3382 24.1496 32.2572L21.456 29.5636C21.375 29.4829 21.2687 29.4326 21.1549 29.4213C21.0412 29.4099 20.927 29.4381 20.8317 29.5012L18.3929 31.1216C17.7369 30.7624 17.0442 30.4747 16.3267 30.2634L15.7484 27.3973C15.7256 27.2851 15.6646 27.1842 15.5759 27.1118C15.4872 27.0394 15.3762 26.9999 15.2617 27H11.4515C11.337 26.9999 11.226 27.0394 11.1373 27.1118C11.0486 27.1842 10.9876 27.2851 10.9648 27.3973L10.3865 30.262C9.66902 30.4733 8.97633 30.761 8.3203 31.1201L5.88153 29.4998C5.78621 29.4366 5.67201 29.4084 5.55825 29.4198C5.44449 29.4311 5.33815 29.4815 5.25722 29.5622L2.56363 32.2558C2.48292 32.3368 2.43263 32.4431 2.42125 32.5568C2.40988 32.6706 2.43812 32.7848 2.5012 32.8801L4.12155 35.3189C3.7624 35.9749 3.4747 36.6676 3.26342 37.385L0.397286 37.9634C0.285091 37.9862 0.184246 38.0472 0.111841 38.1359C0.0394356 38.2246 -7.67297e-05 38.3356 1.11867e-07 38.4501V42.2603C-7.67297e-05 42.3748 0.0394356 42.4858 0.111841 42.5745C0.184246 42.6632 0.285091 42.7241 0.397286 42.747L3.262 43.3253C3.47328 44.0428 3.76098 44.7355 4.12014 45.3915L2.49978 47.8303C2.4367 47.9256 2.40846 48.0398 2.41983 48.1535C2.43121 48.2673 2.4815 48.3736 2.56221 48.4546L5.25581 51.1482C5.33673 51.2289 5.44307 51.2792 5.55683 51.2906C5.6706 51.302 5.78479 51.2737 5.88011 51.2106L8.31888 49.5902C8.97491 49.9494 9.6676 50.2371 10.385 50.4484L10.9634 53.3159C10.9862 53.4281 11.0472 53.529 11.1359 53.6014C11.2246 53.6738 11.3356 53.7133 11.4501 53.7132H15.2603C15.3748 53.7133 15.4858 53.6738 15.5745 53.6014C15.6632 53.529 15.7241 53.4281 15.747 53.3159L16.3253 50.4498C17.0428 50.2385 17.7355 49.9508 18.3915 49.5916L20.8303 51.212C20.9256 51.2749 21.0398 51.3031 21.1535 51.2917C21.2672 51.2803 21.3735 51.2301 21.4546 51.1496L24.1482 48.456C24.2289 48.375 24.2792 48.2687 24.2905 48.1549C24.3019 48.0412 24.2737 47.927 24.2106 47.8317L22.5902 45.3929C22.9494 44.7369 23.2371 44.0442 23.4484 43.3267L26.3159 42.7484C26.4281 42.7256 26.529 42.6646 26.6014 42.5759C26.6738 42.4872 26.7133 42.3762 26.7132 42.2617V38.4515C26.7133 38.3372 26.674 38.2263 26.6019 38.1377C26.5298 38.049 26.4293 37.9879 26.3173 37.9648ZM25.7214 41.8525L22.9535 42.4107C22.8623 42.4291 22.7782 42.4727 22.7107 42.5365C22.6431 42.6004 22.5949 42.682 22.5715 42.772C22.3511 43.6096 22.0169 44.4131 21.5783 45.1599C21.5313 45.2401 21.5078 45.3319 21.5104 45.4249C21.5131 45.5178 21.5418 45.6081 21.5933 45.6855L23.1572 48.0408L21.0388 50.1592L18.6835 48.5953C18.6061 48.5438 18.5158 48.5151 18.4229 48.5124C18.33 48.5098 18.2381 48.5333 18.1579 48.5803C17.4111 49.0189 16.6076 49.3531 15.77 49.5735C15.68 49.5969 15.5984 49.6451 15.5345 49.7126C15.4707 49.7802 15.4271 49.8643 15.4087 49.9554L14.8505 52.7234H11.8578L11.2997 49.9554C11.2813 49.8643 11.2377 49.7802 11.1738 49.7126C11.11 49.6451 11.0284 49.5969 10.9384 49.5735C10.1008 49.3531 9.29731 49.0189 8.55044 48.5803C8.4702 48.5334 8.37841 48.5099 8.28551 48.5126C8.19261 48.5152 8.10231 48.5439 8.02489 48.5953L5.66955 50.1592L3.55117 48.0408L5.11505 45.6855C5.16655 45.6081 5.19527 45.5178 5.19793 45.4249C5.20059 45.3319 5.17708 45.2401 5.13009 45.1599C4.69196 44.413 4.35826 43.6095 4.1383 42.772C4.1149 42.682 4.06668 42.6004 3.99915 42.5365C3.93161 42.4727 3.84747 42.4291 3.75634 42.4107L0.98839 41.8525V38.8578L3.75634 38.2997C3.84747 38.2813 3.93161 38.2377 3.99915 38.1738C4.06668 38.11 4.1149 38.0284 4.1383 37.9384C4.35826 37.1008 4.69196 36.2974 5.13009 35.5504C5.17708 35.4702 5.20059 35.3784 5.19793 35.2855C5.19527 35.1926 5.16655 35.1023 5.11505 35.0249L3.55117 32.6696L5.66955 30.5512L8.02489 32.1151C8.10225 32.1666 8.19256 32.1954 8.2855 32.198C8.37844 32.2007 8.47025 32.1771 8.55044 32.1301C9.29738 31.692 10.1008 31.3583 10.9384 31.1383C11.0284 31.1149 11.11 31.0667 11.1738 30.9991C11.2377 30.9316 11.2813 30.8475 11.2997 30.7563L11.8578 27.9884H14.8539L15.4121 30.7563C15.4305 30.8475 15.4741 30.9316 15.538 30.9991C15.6018 31.0667 15.6834 31.1149 15.7734 31.1383C16.6109 31.3583 17.4144 31.692 18.1613 32.1301C18.2415 32.1771 18.3333 32.2007 18.4263 32.198C18.5192 32.1954 18.6095 32.1666 18.6869 32.1151L21.0422 30.5512L23.1606 32.6696L21.5967 35.0249C21.5452 35.1023 21.5165 35.1926 21.5139 35.2855C21.5112 35.3784 21.5347 35.4702 21.5817 35.5504C22.0203 36.2973 22.3545 37.1008 22.5749 37.9384C22.5983 38.0284 22.6465 38.11 22.7141 38.1738C22.7816 38.2377 22.8657 38.2813 22.9569 38.2997L25.7248 38.8578L25.7214 41.8525Z" fill="#03045C"/>
<path d="M13.3558 33.5104C12.0019 33.5104 10.6783 33.9119 9.55261 34.6641C8.42687 35.4162 7.54946 36.4854 7.03134 37.7362C6.51322 38.9871 6.37766 40.3635 6.64179 41.6914C6.90593 43.0193 7.5579 44.239 8.51526 45.1964C9.47262 46.1538 10.6924 46.8057 12.0203 47.0699C13.3482 47.334 14.7246 47.1984 15.9754 46.6803C17.2263 46.1622 18.2954 45.2848 19.0476 44.1591C19.7998 43.0333 20.2013 41.7098 20.2013 40.3559C20.1992 38.541 19.4773 36.801 18.194 35.5177C16.9106 34.2344 15.1707 33.5125 13.3558 33.5104ZM13.3558 46.2082C12.1983 46.2082 11.0668 45.865 10.1044 45.2219C9.142 44.5788 8.3919 43.6648 7.94895 42.5955C7.506 41.5261 7.39011 40.3494 7.61592 39.2142C7.84173 38.0789 8.39911 37.0361 9.21757 36.2177C10.036 35.3992 11.0788 34.8419 12.214 34.616C13.3493 34.3902 14.526 34.5061 15.5954 34.9491C16.6647 35.392 17.5787 36.1421 18.2218 37.1045C18.8648 38.0669 19.2081 39.1984 19.2081 40.3559C19.2063 41.9075 18.5891 43.395 17.492 44.4921C16.3949 45.5892 14.9073 46.2064 13.3558 46.2082Z" fill="#03045C"/>
<path d="M13.3559 35.5927C12.4139 35.5927 11.493 35.872 10.7097 36.3954C9.92637 36.9188 9.31586 37.6627 8.95535 38.533C8.59484 39.4034 8.50051 40.3611 8.6843 41.2851C8.86809 42.209 9.32174 43.0577 9.98788 43.7239C10.654 44.39 11.5027 44.8437 12.4267 45.0275C13.3507 45.2113 14.3084 45.1169 15.1787 44.7564C16.0491 44.3959 16.793 43.7854 17.3164 43.0021C17.8398 42.2188 18.1191 41.2979 18.1191 40.3558C18.118 39.0929 17.6158 37.882 16.7228 36.989C15.8297 36.096 14.6189 35.5938 13.3559 35.5927ZM13.3559 44.1258C12.6103 44.1258 11.8814 43.9047 11.2615 43.4904C10.6415 43.0762 10.1583 42.4874 9.87296 41.7985C9.58762 41.1096 9.51296 40.3516 9.65843 39.6203C9.80389 38.889 10.1629 38.2173 10.6902 37.6901C11.2174 37.1628 11.8892 36.8038 12.6205 36.6583C13.3518 36.5128 14.1098 36.5875 14.7986 36.8728C15.4875 37.1582 16.0763 37.6414 16.4906 38.2613C16.9048 38.8813 17.1259 39.6102 17.1259 40.3558C17.1248 41.3553 16.7272 42.3136 16.0205 43.0203C15.3137 43.7271 14.3555 44.1246 13.3559 44.1258Z" fill="#03045C"/>
</svg>
